<mxfile host="Electron" agent="Mozilla/5.0 (Windows NT 10.0; Win64; x64) AppleWebKit/537.36 (KHTML, like Gecko) draw.io/25.0.2 Chrome/128.0.6613.186 Electron/32.2.5 Safari/537.36" version="25.0.2">
  <diagram name="Page-1" id="0NqRDMZAXWw_qfSmM8XS">
    <mxGraphModel dx="2606" dy="3323" grid="0" gridSize="10" guides="0" tooltips="1" connect="1" arrows="1" fold="1" page="0" pageScale="1" pageWidth="827" pageHeight="1169" math="0" shadow="0">
      <root>
        <mxCell id="0" />
        <mxCell id="1" parent="0" />
        <mxCell id="6dfBTm71OyUCT0kCx_6O-8" style="rounded=0;orthogonalLoop=1;jettySize=auto;html=1;exitX=1;exitY=0.3333333333333333;exitDx=0;exitDy=0;exitPerimeter=0;entryX=0;entryY=0.5;entryDx=0;entryDy=0;" parent="1" source="6dfBTm71OyUCT0kCx_6O-2" target="6dfBTm71OyUCT0kCx_6O-6" edge="1">
          <mxGeometry relative="1" as="geometry" />
        </mxCell>
        <mxCell id="nAx7xvZWWUwr8eBIahOH-26" style="rounded=0;orthogonalLoop=1;jettySize=auto;html=1;entryX=0;entryY=0.5;entryDx=0;entryDy=0;exitX=1;exitY=0.3333333333333333;exitDx=0;exitDy=0;exitPerimeter=0;" parent="1" source="6dfBTm71OyUCT0kCx_6O-2" target="nAx7xvZWWUwr8eBIahOH-25" edge="1">
          <mxGeometry relative="1" as="geometry" />
        </mxCell>
        <mxCell id="nAx7xvZWWUwr8eBIahOH-87" style="rounded=0;orthogonalLoop=1;jettySize=auto;html=1;entryX=0;entryY=0.5;entryDx=0;entryDy=0;exitX=1;exitY=0.3333333333333333;exitDx=0;exitDy=0;exitPerimeter=0;" parent="1" source="6dfBTm71OyUCT0kCx_6O-2" target="nAx7xvZWWUwr8eBIahOH-86" edge="1">
          <mxGeometry relative="1" as="geometry" />
        </mxCell>
        <mxCell id="6dfBTm71OyUCT0kCx_6O-2" value="&lt;font style=&quot;font-size: 16px;&quot;&gt;社会组织管理员&lt;/font&gt;&lt;div&gt;&lt;font style=&quot;font-size: 16px;&quot;&gt;（政府人员）1&lt;/font&gt;&lt;/div&gt;" style="shape=umlActor;verticalLabelPosition=bottom;verticalAlign=top;html=1;outlineConnect=0;" parent="1" vertex="1">
          <mxGeometry x="-310" y="-438" width="30" height="60" as="geometry" />
        </mxCell>
        <mxCell id="nAx7xvZWWUwr8eBIahOH-15" style="rounded=0;orthogonalLoop=1;jettySize=auto;html=1;entryX=0;entryY=0.5;entryDx=0;entryDy=0;exitX=1;exitY=0.3333333333333333;exitDx=0;exitDy=0;exitPerimeter=0;" parent="1" source="6dfBTm71OyUCT0kCx_6O-3" target="nAx7xvZWWUwr8eBIahOH-14" edge="1">
          <mxGeometry relative="1" as="geometry" />
        </mxCell>
        <mxCell id="nAx7xvZWWUwr8eBIahOH-18" style="rounded=0;orthogonalLoop=1;jettySize=auto;html=1;entryX=0;entryY=0.5;entryDx=0;entryDy=0;exitX=1;exitY=0.3333333333333333;exitDx=0;exitDy=0;exitPerimeter=0;" parent="1" source="6dfBTm71OyUCT0kCx_6O-3" target="nAx7xvZWWUwr8eBIahOH-17" edge="1">
          <mxGeometry relative="1" as="geometry" />
        </mxCell>
        <mxCell id="nAx7xvZWWUwr8eBIahOH-64" style="rounded=0;orthogonalLoop=1;jettySize=auto;html=1;entryX=0;entryY=0.5;entryDx=0;entryDy=0;exitX=1;exitY=0.383;exitDx=0;exitDy=0;exitPerimeter=0;" parent="1" source="6dfBTm71OyUCT0kCx_6O-3" target="nAx7xvZWWUwr8eBIahOH-62" edge="1">
          <mxGeometry relative="1" as="geometry" />
        </mxCell>
        <mxCell id="nAx7xvZWWUwr8eBIahOH-65" style="rounded=0;orthogonalLoop=1;jettySize=auto;html=1;entryX=0;entryY=0.5;entryDx=0;entryDy=0;exitX=1;exitY=0.3333333333333333;exitDx=0;exitDy=0;exitPerimeter=0;" parent="1" source="6dfBTm71OyUCT0kCx_6O-3" target="nAx7xvZWWUwr8eBIahOH-63" edge="1">
          <mxGeometry relative="1" as="geometry" />
        </mxCell>
        <mxCell id="nAx7xvZWWUwr8eBIahOH-67" style="rounded=0;orthogonalLoop=1;jettySize=auto;html=1;entryX=0;entryY=0.5;entryDx=0;entryDy=0;exitX=1;exitY=0.3333333333333333;exitDx=0;exitDy=0;exitPerimeter=0;" parent="1" source="6dfBTm71OyUCT0kCx_6O-3" target="nAx7xvZWWUwr8eBIahOH-66" edge="1">
          <mxGeometry relative="1" as="geometry" />
        </mxCell>
        <mxCell id="6dfBTm71OyUCT0kCx_6O-3" value="&lt;font style=&quot;font-size: 16px;&quot;&gt;评审专家&lt;/font&gt;&lt;div&gt;&lt;font style=&quot;font-size: 16px;&quot;&gt;(内部）3&lt;/font&gt;&lt;/div&gt;" style="shape=umlActor;verticalLabelPosition=bottom;verticalAlign=top;html=1;outlineConnect=0;" parent="1" vertex="1">
          <mxGeometry x="-309" y="-48" width="30" height="60" as="geometry" />
        </mxCell>
        <mxCell id="nAx7xvZWWUwr8eBIahOH-1" style="rounded=0;orthogonalLoop=1;jettySize=auto;html=1;entryX=1;entryY=0.5;entryDx=0;entryDy=0;exitX=0;exitY=0.3333333333333333;exitDx=0;exitDy=0;exitPerimeter=0;" parent="1" source="6dfBTm71OyUCT0kCx_6O-4" target="6dfBTm71OyUCT0kCx_6O-7" edge="1">
          <mxGeometry relative="1" as="geometry" />
        </mxCell>
        <mxCell id="nAx7xvZWWUwr8eBIahOH-8" style="rounded=0;orthogonalLoop=1;jettySize=auto;html=1;entryX=1;entryY=0.5;entryDx=0;entryDy=0;exitX=0;exitY=0.3333333333333333;exitDx=0;exitDy=0;exitPerimeter=0;" parent="1" source="6dfBTm71OyUCT0kCx_6O-4" target="nAx7xvZWWUwr8eBIahOH-7" edge="1">
          <mxGeometry relative="1" as="geometry" />
        </mxCell>
        <mxCell id="nAx7xvZWWUwr8eBIahOH-83" style="rounded=0;orthogonalLoop=1;jettySize=auto;html=1;entryX=1;entryY=0.5;entryDx=0;entryDy=0;exitX=0;exitY=0.3333333333333333;exitDx=0;exitDy=0;exitPerimeter=0;" parent="1" source="6dfBTm71OyUCT0kCx_6O-4" target="nAx7xvZWWUwr8eBIahOH-78" edge="1">
          <mxGeometry relative="1" as="geometry" />
        </mxCell>
        <mxCell id="nAx7xvZWWUwr8eBIahOH-85" style="rounded=0;orthogonalLoop=1;jettySize=auto;html=1;entryX=1;entryY=0.5;entryDx=0;entryDy=0;exitX=0;exitY=0.3333333333333333;exitDx=0;exitDy=0;exitPerimeter=0;" parent="1" source="6dfBTm71OyUCT0kCx_6O-4" target="nAx7xvZWWUwr8eBIahOH-84" edge="1">
          <mxGeometry relative="1" as="geometry" />
        </mxCell>
        <mxCell id="6dfBTm71OyUCT0kCx_6O-4" value="&lt;font style=&quot;font-size: 16px;&quot;&gt;社会组织&lt;/font&gt;&lt;div&gt;&lt;font style=&quot;font-size: 16px;&quot;&gt;（用户群体）2&lt;/font&gt;&lt;/div&gt;" style="shape=umlActor;verticalLabelPosition=bottom;verticalAlign=top;html=1;outlineConnect=0;" parent="1" vertex="1">
          <mxGeometry x="913" y="-355" width="30" height="60" as="geometry" />
        </mxCell>
        <mxCell id="6dfBTm71OyUCT0kCx_6O-6" value="&lt;div&gt;&lt;font style=&quot;font-size: 16px;&quot;&gt;&lt;br&gt;&lt;/font&gt;&lt;/div&gt;&lt;font style=&quot;font-size: 16px;&quot;&gt;社会组织管理员登录&lt;/font&gt;" style="ellipse;whiteSpace=wrap;html=1;" parent="1" vertex="1">
          <mxGeometry x="-140" y="-620" width="120" height="80" as="geometry" />
        </mxCell>
        <mxCell id="6dfBTm71OyUCT0kCx_6O-7" value="&lt;font style=&quot;font-size: 16px;&quot;&gt;社会组织登录&lt;/font&gt;" style="ellipse;whiteSpace=wrap;html=1;" parent="1" vertex="1">
          <mxGeometry x="680" y="-750" width="120" height="80" as="geometry" />
        </mxCell>
        <mxCell id="nAx7xvZWWUwr8eBIahOH-35" style="rounded=0;orthogonalLoop=1;jettySize=auto;html=1;entryX=0;entryY=0.5;entryDx=0;entryDy=0;exitX=1;exitY=0.5;exitDx=0;exitDy=0;dashed=1;endArrow=open;endFill=0;" parent="1" source="6dfBTm71OyUCT0kCx_6O-9" edge="1">
          <mxGeometry relative="1" as="geometry">
            <mxPoint x="900" y="-1610" as="targetPoint" />
          </mxGeometry>
        </mxCell>
        <mxCell id="6dfBTm71OyUCT0kCx_6O-9" value="&lt;font style=&quot;font-size: 16px;&quot;&gt;活动申报&lt;/font&gt;" style="ellipse;whiteSpace=wrap;html=1;" parent="1" vertex="1">
          <mxGeometry x="740" y="-1680" width="120" height="80" as="geometry" />
        </mxCell>
        <mxCell id="nAx7xvZWWUwr8eBIahOH-10" style="rounded=0;orthogonalLoop=1;jettySize=auto;html=1;entryX=0;entryY=0.5;entryDx=0;entryDy=0;exitX=1;exitY=0.5;exitDx=0;exitDy=0;endArrow=open;endFill=0;dashed=1;" parent="1" source="6dfBTm71OyUCT0kCx_6O-10" target="nAx7xvZWWUwr8eBIahOH-7" edge="1">
          <mxGeometry relative="1" as="geometry">
            <mxPoint x="772" y="-409" as="sourcePoint" />
          </mxGeometry>
        </mxCell>
        <mxCell id="6dfBTm71OyUCT0kCx_6O-10" value="&lt;font style=&quot;font-size: 16px;&quot;&gt;项目申报&lt;/font&gt;" style="ellipse;whiteSpace=wrap;html=1;" parent="1" vertex="1">
          <mxGeometry x="508" y="-370" width="120" height="80" as="geometry" />
        </mxCell>
        <mxCell id="nAx7xvZWWUwr8eBIahOH-33" style="rounded=0;orthogonalLoop=1;jettySize=auto;html=1;entryX=0;entryY=0.5;entryDx=0;entryDy=0;exitX=1;exitY=0.5;exitDx=0;exitDy=0;endArrow=open;endFill=0;dashed=1;" parent="1" source="6dfBTm71OyUCT0kCx_6O-11" target="nAx7xvZWWUwr8eBIahOH-7" edge="1">
          <mxGeometry relative="1" as="geometry" />
        </mxCell>
        <mxCell id="6dfBTm71OyUCT0kCx_6O-11" value="&lt;span style=&quot;font-size: 16px;&quot;&gt;活动管理&lt;/span&gt;" style="ellipse;whiteSpace=wrap;html=1;" parent="1" vertex="1">
          <mxGeometry x="510" y="-200" width="120" height="80" as="geometry" />
        </mxCell>
        <mxCell id="6dfBTm71OyUCT0kCx_6O-13" value="&lt;span style=&quot;font-size: 16px;&quot;&gt;模板管理&lt;/span&gt;" style="ellipse;whiteSpace=wrap;html=1;" parent="1" vertex="1">
          <mxGeometry x="-90" y="-930" width="120" height="80" as="geometry" />
        </mxCell>
        <mxCell id="6dfBTm71OyUCT0kCx_6O-15" value="&lt;font style=&quot;font-size: 16px;&quot;&gt;专家库管理&lt;/font&gt;" style="ellipse;whiteSpace=wrap;html=1;" parent="1" vertex="1">
          <mxGeometry x="-100" y="-1306" width="120" height="80" as="geometry" />
        </mxCell>
        <mxCell id="nAx7xvZWWUwr8eBIahOH-5" style="rounded=0;orthogonalLoop=1;jettySize=auto;html=1;entryX=1;entryY=0.5;entryDx=0;entryDy=0;exitX=0;exitY=0.5;exitDx=0;exitDy=0;dashed=1;endArrow=open;endFill=0;" parent="1" source="nAx7xvZWWUwr8eBIahOH-2" target="6dfBTm71OyUCT0kCx_6O-13" edge="1">
          <mxGeometry relative="1" as="geometry">
            <mxPoint x="27" y="-227" as="targetPoint" />
          </mxGeometry>
        </mxCell>
        <mxCell id="nAx7xvZWWUwr8eBIahOH-2" value="&lt;div&gt;&lt;font style=&quot;font-size: 16px;&quot;&gt;&lt;br&gt;&lt;/font&gt;&lt;/div&gt;&lt;font style=&quot;font-size: 16px;&quot;&gt;项目申报模板管理&lt;/font&gt;" style="ellipse;whiteSpace=wrap;html=1;" parent="1" vertex="1">
          <mxGeometry x="60" y="-1063" width="120" height="80" as="geometry" />
        </mxCell>
        <mxCell id="nAx7xvZWWUwr8eBIahOH-6" style="rounded=0;orthogonalLoop=1;jettySize=auto;html=1;entryX=1;entryY=0.5;entryDx=0;entryDy=0;dashed=1;endArrow=open;endFill=0;exitX=0;exitY=0.5;exitDx=0;exitDy=0;" parent="1" source="nAx7xvZWWUwr8eBIahOH-3" target="6dfBTm71OyUCT0kCx_6O-13" edge="1">
          <mxGeometry relative="1" as="geometry">
            <mxPoint x="30" y="-226.4117647058822" as="targetPoint" />
          </mxGeometry>
        </mxCell>
        <mxCell id="nAx7xvZWWUwr8eBIahOH-3" value="&lt;div&gt;&lt;font style=&quot;font-size: 16px;&quot;&gt;&lt;br&gt;&lt;/font&gt;&lt;/div&gt;&lt;font style=&quot;font-size: 16px;&quot;&gt;活动细节模板管理&lt;/font&gt;" style="ellipse;whiteSpace=wrap;html=1;" parent="1" vertex="1">
          <mxGeometry x="50" y="-800" width="119" height="80" as="geometry" />
        </mxCell>
        <mxCell id="nAx7xvZWWUwr8eBIahOH-7" value="&lt;font style=&quot;font-size: 16px;&quot;&gt;项目管理&lt;/font&gt;" style="ellipse;whiteSpace=wrap;html=1;" parent="1" vertex="1">
          <mxGeometry x="677" y="-320" width="120" height="80" as="geometry" />
        </mxCell>
        <mxCell id="nAx7xvZWWUwr8eBIahOH-13" style="rounded=0;orthogonalLoop=1;jettySize=auto;html=1;entryX=1;entryY=0.5;entryDx=0;entryDy=0;exitX=0;exitY=0.5;exitDx=0;exitDy=0;dashed=1;endArrow=open;endFill=0;" parent="1" source="nAx7xvZWWUwr8eBIahOH-11" target="6dfBTm71OyUCT0kCx_6O-15" edge="1">
          <mxGeometry relative="1" as="geometry" />
        </mxCell>
        <mxCell id="nAx7xvZWWUwr8eBIahOH-11" value="&lt;font style=&quot;font-size: 16px;&quot;&gt;邀请专家&lt;/font&gt;" style="ellipse;whiteSpace=wrap;html=1;" parent="1" vertex="1">
          <mxGeometry x="110" y="-1350" width="120" height="80" as="geometry" />
        </mxCell>
        <mxCell id="nAx7xvZWWUwr8eBIahOH-14" value="&lt;font style=&quot;font-size: 16px;&quot;&gt;查看项目库&lt;/font&gt;" style="ellipse;whiteSpace=wrap;html=1;" parent="1" vertex="1">
          <mxGeometry x="-137" y="35" width="120" height="80" as="geometry" />
        </mxCell>
        <mxCell id="nAx7xvZWWUwr8eBIahOH-17" value="&lt;span style=&quot;font-size: 16px;&quot;&gt;优化申报项目&lt;/span&gt;" style="ellipse;whiteSpace=wrap;html=1;" parent="1" vertex="1">
          <mxGeometry x="-137" y="137" width="120" height="80" as="geometry" />
        </mxCell>
        <mxCell id="nAx7xvZWWUwr8eBIahOH-24" style="rounded=0;orthogonalLoop=1;jettySize=auto;html=1;entryX=1;entryY=0.5;entryDx=0;entryDy=0;exitX=0;exitY=0.5;exitDx=0;exitDy=0;endArrow=open;endFill=0;dashed=1;" parent="1" source="nAx7xvZWWUwr8eBIahOH-21" target="nAx7xvZWWUwr8eBIahOH-17" edge="1">
          <mxGeometry relative="1" as="geometry" />
        </mxCell>
        <mxCell id="nAx7xvZWWUwr8eBIahOH-21" value="&lt;span style=&quot;font-size: 16px;&quot;&gt;进行优化&lt;/span&gt;" style="ellipse;whiteSpace=wrap;html=1;" parent="1" vertex="1">
          <mxGeometry x="81" y="134" width="120" height="80" as="geometry" />
        </mxCell>
        <mxCell id="nAx7xvZWWUwr8eBIahOH-25" value="&lt;font style=&quot;font-size: 16px;&quot;&gt;项目管理&lt;/font&gt;" style="ellipse;whiteSpace=wrap;html=1;" parent="1" vertex="1">
          <mxGeometry x="-140" y="-500" width="120" height="80" as="geometry" />
        </mxCell>
        <mxCell id="nAx7xvZWWUwr8eBIahOH-29" style="rounded=0;orthogonalLoop=1;jettySize=auto;html=1;entryX=1;entryY=0.5;entryDx=0;entryDy=0;exitX=0;exitY=0.5;exitDx=0;exitDy=0;dashed=1;endArrow=open;endFill=0;" parent="1" source="nAx7xvZWWUwr8eBIahOH-27" target="nAx7xvZWWUwr8eBIahOH-25" edge="1">
          <mxGeometry relative="1" as="geometry" />
        </mxCell>
        <mxCell id="nAx7xvZWWUwr8eBIahOH-27" value="&lt;div&gt;&lt;font style=&quot;font-size: 16px;&quot;&gt;&lt;br&gt;&lt;/font&gt;&lt;/div&gt;&lt;font style=&quot;font-size: 16px;&quot;&gt;导出项目书为文档&lt;/font&gt;" style="ellipse;whiteSpace=wrap;html=1;" parent="1" vertex="1">
          <mxGeometry x="63" y="-452" width="120" height="80" as="geometry" />
        </mxCell>
        <mxCell id="nAx7xvZWWUwr8eBIahOH-37" style="rounded=0;orthogonalLoop=1;jettySize=auto;html=1;entryX=0;entryY=0.5;entryDx=0;entryDy=0;dashed=1;endArrow=open;endFill=0;exitX=1;exitY=0.5;exitDx=0;exitDy=0;" parent="1" source="nAx7xvZWWUwr8eBIahOH-36" target="6dfBTm71OyUCT0kCx_6O-11" edge="1">
          <mxGeometry relative="1" as="geometry" />
        </mxCell>
        <mxCell id="nAx7xvZWWUwr8eBIahOH-36" value="&lt;font style=&quot;font-size: 16px;&quot;&gt;上传活动细节&lt;/font&gt;" style="ellipse;whiteSpace=wrap;html=1;" parent="1" vertex="1">
          <mxGeometry x="360" y="-200" width="120" height="80" as="geometry" />
        </mxCell>
        <mxCell id="nAx7xvZWWUwr8eBIahOH-40" style="rounded=0;orthogonalLoop=1;jettySize=auto;html=1;entryX=1;entryY=0.5;entryDx=0;entryDy=0;exitX=0;exitY=0.5;exitDx=0;exitDy=0;dashed=1;endArrow=open;endFill=0;" parent="1" source="nAx7xvZWWUwr8eBIahOH-38" target="nAx7xvZWWUwr8eBIahOH-2" edge="1">
          <mxGeometry relative="1" as="geometry" />
        </mxCell>
        <mxCell id="nAx7xvZWWUwr8eBIahOH-38" value="&lt;div&gt;&lt;font style=&quot;font-size: 16px;&quot;&gt;&lt;br&gt;&lt;/font&gt;&lt;/div&gt;&lt;font style=&quot;font-size: 16px;&quot;&gt;制作项目申报模板&lt;/font&gt;" style="ellipse;whiteSpace=wrap;html=1;" parent="1" vertex="1">
          <mxGeometry x="221" y="-1150" width="120" height="80" as="geometry" />
        </mxCell>
        <mxCell id="nAx7xvZWWUwr8eBIahOH-43" style="rounded=0;orthogonalLoop=1;jettySize=auto;html=1;entryX=1;entryY=0.5;entryDx=0;entryDy=0;dashed=1;endArrow=open;endFill=0;" parent="1" source="nAx7xvZWWUwr8eBIahOH-41" target="nAx7xvZWWUwr8eBIahOH-2" edge="1">
          <mxGeometry relative="1" as="geometry" />
        </mxCell>
        <mxCell id="nAx7xvZWWUwr8eBIahOH-41" value="&lt;div&gt;&lt;font style=&quot;font-size: 16px;&quot;&gt;&lt;br&gt;&lt;/font&gt;&lt;/div&gt;&lt;font style=&quot;font-size: 16px;&quot;&gt;启用项目申报模板&lt;/font&gt;" style="ellipse;whiteSpace=wrap;html=1;" parent="1" vertex="1">
          <mxGeometry x="220" y="-1060" width="120" height="80" as="geometry" />
        </mxCell>
        <mxCell id="nAx7xvZWWUwr8eBIahOH-44" style="rounded=0;orthogonalLoop=1;jettySize=auto;html=1;entryX=1;entryY=0.5;entryDx=0;entryDy=0;exitX=0;exitY=0.5;exitDx=0;exitDy=0;dashed=1;endArrow=open;endFill=0;" parent="1" source="nAx7xvZWWUwr8eBIahOH-42" target="nAx7xvZWWUwr8eBIahOH-2" edge="1">
          <mxGeometry relative="1" as="geometry" />
        </mxCell>
        <mxCell id="nAx7xvZWWUwr8eBIahOH-42" value="&lt;font style=&quot;font-size: 16px;&quot;&gt;归档模板&lt;/font&gt;" style="ellipse;whiteSpace=wrap;html=1;" parent="1" vertex="1">
          <mxGeometry x="221" y="-968" width="120" height="80" as="geometry" />
        </mxCell>
        <mxCell id="nAx7xvZWWUwr8eBIahOH-45" style="rounded=0;orthogonalLoop=1;jettySize=auto;html=1;entryX=1;entryY=0.5;entryDx=0;entryDy=0;exitX=0;exitY=0.5;exitDx=0;exitDy=0;dashed=1;endArrow=open;endFill=0;" parent="1" source="nAx7xvZWWUwr8eBIahOH-46" target="nAx7xvZWWUwr8eBIahOH-3" edge="1">
          <mxGeometry relative="1" as="geometry">
            <mxPoint x="131" y="-334" as="targetPoint" />
            <mxPoint x="222" y="-454.9999999999998" as="sourcePoint" />
          </mxGeometry>
        </mxCell>
        <mxCell id="nAx7xvZWWUwr8eBIahOH-46" value="&lt;div&gt;&lt;font style=&quot;font-size: 16px;&quot;&gt;&lt;br&gt;&lt;/font&gt;&lt;/div&gt;&lt;font style=&quot;font-size: 16px;&quot;&gt;制作活动细节模板&lt;/font&gt;" style="ellipse;whiteSpace=wrap;html=1;" parent="1" vertex="1">
          <mxGeometry x="223" y="-880" width="120" height="80" as="geometry" />
        </mxCell>
        <mxCell id="nAx7xvZWWUwr8eBIahOH-47" style="rounded=0;orthogonalLoop=1;jettySize=auto;html=1;entryX=1;entryY=0.5;entryDx=0;entryDy=0;exitX=0;exitY=0.5;exitDx=0;exitDy=0;dashed=1;endArrow=open;endFill=0;" parent="1" source="nAx7xvZWWUwr8eBIahOH-48" target="nAx7xvZWWUwr8eBIahOH-3" edge="1">
          <mxGeometry relative="1" as="geometry">
            <mxPoint x="131" y="-334" as="targetPoint" />
          </mxGeometry>
        </mxCell>
        <mxCell id="nAx7xvZWWUwr8eBIahOH-48" value="&lt;div&gt;&lt;font style=&quot;font-size: 16px;&quot;&gt;&lt;br&gt;&lt;/font&gt;&lt;/div&gt;&lt;font style=&quot;font-size: 16px;&quot;&gt;启用活动细节模板&lt;/font&gt;" style="ellipse;whiteSpace=wrap;html=1;" parent="1" vertex="1">
          <mxGeometry x="220" y="-791" width="120" height="80" as="geometry" />
        </mxCell>
        <mxCell id="nAx7xvZWWUwr8eBIahOH-49" style="rounded=0;orthogonalLoop=1;jettySize=auto;html=1;exitX=0;exitY=0.5;exitDx=0;exitDy=0;dashed=1;endArrow=open;endFill=0;entryX=1;entryY=0.5;entryDx=0;entryDy=0;" parent="1" source="nAx7xvZWWUwr8eBIahOH-50" edge="1" target="nAx7xvZWWUwr8eBIahOH-3">
          <mxGeometry relative="1" as="geometry">
            <mxPoint x="124" y="-463" as="targetPoint" />
          </mxGeometry>
        </mxCell>
        <mxCell id="nAx7xvZWWUwr8eBIahOH-50" value="&lt;font style=&quot;font-size: 16px;&quot;&gt;归档模板&lt;/font&gt;" style="ellipse;whiteSpace=wrap;html=1;" parent="1" vertex="1">
          <mxGeometry x="223" y="-703" width="120" height="80" as="geometry" />
        </mxCell>
        <mxCell id="nAx7xvZWWUwr8eBIahOH-53" style="rounded=0;orthogonalLoop=1;jettySize=auto;html=1;entryX=1;entryY=0.5;entryDx=0;entryDy=0;exitX=0;exitY=0.5;exitDx=0;exitDy=0;dashed=1;endArrow=open;endFill=0;" parent="1" source="nAx7xvZWWUwr8eBIahOH-52" target="6dfBTm71OyUCT0kCx_6O-15" edge="1">
          <mxGeometry relative="1" as="geometry" />
        </mxCell>
        <mxCell id="nAx7xvZWWUwr8eBIahOH-52" value="&lt;font style=&quot;font-size: 16px;&quot;&gt;移除专家&lt;/font&gt;" style="ellipse;whiteSpace=wrap;html=1;" parent="1" vertex="1">
          <mxGeometry x="110" y="-1264" width="120" height="80" as="geometry" />
        </mxCell>
        <mxCell id="nAx7xvZWWUwr8eBIahOH-55" style="rounded=0;orthogonalLoop=1;jettySize=auto;html=1;entryX=1;entryY=0.5;entryDx=0;entryDy=0;dashed=1;endArrow=open;endFill=0;exitX=0;exitY=0.5;exitDx=0;exitDy=0;" parent="1" source="nAx7xvZWWUwr8eBIahOH-54" target="nAx7xvZWWUwr8eBIahOH-25" edge="1">
          <mxGeometry relative="1" as="geometry" />
        </mxCell>
        <mxCell id="nAx7xvZWWUwr8eBIahOH-54" value="&lt;div&gt;&lt;font style=&quot;font-size: 16px;&quot;&gt;&lt;br&gt;&lt;/font&gt;&lt;/div&gt;&lt;font style=&quot;font-size: 16px;&quot;&gt;查看区域所有项目&lt;/font&gt;" style="ellipse;whiteSpace=wrap;html=1;" parent="1" vertex="1">
          <mxGeometry x="60" y="-544" width="120" height="80" as="geometry" />
        </mxCell>
        <mxCell id="nAx7xvZWWUwr8eBIahOH-58" style="rounded=0;orthogonalLoop=1;jettySize=auto;html=1;entryX=1;entryY=0.5;entryDx=0;entryDy=0;dashed=1;endArrow=open;endFill=0;" parent="1" source="nAx7xvZWWUwr8eBIahOH-56" target="nAx7xvZWWUwr8eBIahOH-54" edge="1">
          <mxGeometry relative="1" as="geometry" />
        </mxCell>
        <mxCell id="nAx7xvZWWUwr8eBIahOH-56" value="&lt;div&gt;&lt;font style=&quot;font-size: 16px;&quot;&gt;&lt;br&gt;&lt;/font&gt;&lt;/div&gt;&lt;font style=&quot;font-size: 16px;&quot;&gt;查看项目全部活动&lt;/font&gt;" style="ellipse;whiteSpace=wrap;html=1;" parent="1" vertex="1">
          <mxGeometry x="221" y="-541" width="120" height="80" as="geometry" />
        </mxCell>
        <mxCell id="nAx7xvZWWUwr8eBIahOH-59" style="rounded=0;orthogonalLoop=1;jettySize=auto;html=1;entryX=1;entryY=0.5;entryDx=0;entryDy=0;dashed=1;endArrow=open;endFill=0;" parent="1" source="nAx7xvZWWUwr8eBIahOH-57" target="nAx7xvZWWUwr8eBIahOH-27" edge="1">
          <mxGeometry relative="1" as="geometry" />
        </mxCell>
        <mxCell id="nAx7xvZWWUwr8eBIahOH-57" value="&lt;div&gt;&lt;font style=&quot;font-size: 16px;&quot;&gt;&lt;br&gt;&lt;/font&gt;&lt;/div&gt;&lt;font style=&quot;font-size: 16px;&quot;&gt;导出项目活动细节文档&lt;/font&gt;" style="ellipse;whiteSpace=wrap;html=1;" parent="1" vertex="1">
          <mxGeometry x="222" y="-452" width="120" height="80" as="geometry" />
        </mxCell>
        <mxCell id="nAx7xvZWWUwr8eBIahOH-62" value="&lt;font style=&quot;font-size: 16px;&quot;&gt;专家接受邀请&lt;/font&gt;" style="ellipse;whiteSpace=wrap;html=1;" parent="1" vertex="1">
          <mxGeometry x="-137" y="-230" width="120" height="80" as="geometry" />
        </mxCell>
        <mxCell id="nAx7xvZWWUwr8eBIahOH-63" value="&lt;font style=&quot;font-size: 16px;&quot;&gt;专家登录&lt;/font&gt;" style="ellipse;whiteSpace=wrap;html=1;" parent="1" vertex="1">
          <mxGeometry x="-138" y="-144" width="120" height="80" as="geometry" />
        </mxCell>
        <mxCell id="nAx7xvZWWUwr8eBIahOH-66" value="&lt;font style=&quot;font-size: 16px;&quot;&gt;信息管理&lt;/font&gt;" style="ellipse;whiteSpace=wrap;html=1;" parent="1" vertex="1">
          <mxGeometry x="-137" y="-55" width="120" height="80" as="geometry" />
        </mxCell>
        <mxCell id="nAx7xvZWWUwr8eBIahOH-70" style="rounded=0;orthogonalLoop=1;jettySize=auto;html=1;entryX=1;entryY=0.5;entryDx=0;entryDy=0;dashed=1;endArrow=open;endFill=0;exitX=0;exitY=0.5;exitDx=0;exitDy=0;" parent="1" source="nAx7xvZWWUwr8eBIahOH-68" target="nAx7xvZWWUwr8eBIahOH-66" edge="1">
          <mxGeometry relative="1" as="geometry" />
        </mxCell>
        <mxCell id="nAx7xvZWWUwr8eBIahOH-68" value="&lt;font style=&quot;font-size: 16px;&quot;&gt;修改名称&lt;/font&gt;" style="ellipse;whiteSpace=wrap;html=1;" parent="1" vertex="1">
          <mxGeometry x="83" y="-101" width="120" height="80" as="geometry" />
        </mxCell>
        <mxCell id="nAx7xvZWWUwr8eBIahOH-71" style="rounded=0;orthogonalLoop=1;jettySize=auto;html=1;entryX=1;entryY=0.5;entryDx=0;entryDy=0;dashed=1;endArrow=open;endFill=0;exitX=0;exitY=0.5;exitDx=0;exitDy=0;" parent="1" source="nAx7xvZWWUwr8eBIahOH-69" target="nAx7xvZWWUwr8eBIahOH-66" edge="1">
          <mxGeometry relative="1" as="geometry" />
        </mxCell>
        <mxCell id="nAx7xvZWWUwr8eBIahOH-69" value="&lt;font style=&quot;font-size: 16px;&quot;&gt;修改密码&lt;/font&gt;" style="ellipse;whiteSpace=wrap;html=1;" parent="1" vertex="1">
          <mxGeometry x="83" y="-12" width="120" height="80" as="geometry" />
        </mxCell>
        <mxCell id="nAx7xvZWWUwr8eBIahOH-78" value="&lt;font style=&quot;font-size: 16px;&quot;&gt;信息管理&lt;/font&gt;" style="ellipse;whiteSpace=wrap;html=1;" parent="1" vertex="1">
          <mxGeometry x="680" y="-530" width="120" height="80" as="geometry" />
        </mxCell>
        <mxCell id="nAx7xvZWWUwr8eBIahOH-79" style="rounded=0;orthogonalLoop=1;jettySize=auto;html=1;entryX=0;entryY=0.5;entryDx=0;entryDy=0;dashed=1;endArrow=open;endFill=0;exitX=1;exitY=0.5;exitDx=0;exitDy=0;" parent="1" source="nAx7xvZWWUwr8eBIahOH-80" target="nAx7xvZWWUwr8eBIahOH-78" edge="1">
          <mxGeometry relative="1" as="geometry" />
        </mxCell>
        <mxCell id="nAx7xvZWWUwr8eBIahOH-80" value="&lt;font style=&quot;font-size: 16px;&quot;&gt;修改名称&lt;/font&gt;" style="ellipse;whiteSpace=wrap;html=1;" parent="1" vertex="1">
          <mxGeometry x="510" y="-580" width="120" height="80" as="geometry" />
        </mxCell>
        <mxCell id="nAx7xvZWWUwr8eBIahOH-81" style="rounded=0;orthogonalLoop=1;jettySize=auto;html=1;dashed=1;endArrow=open;endFill=0;exitX=1;exitY=0.5;exitDx=0;exitDy=0;" parent="1" source="nAx7xvZWWUwr8eBIahOH-82" edge="1">
          <mxGeometry relative="1" as="geometry">
            <mxPoint x="678" y="-490" as="targetPoint" />
          </mxGeometry>
        </mxCell>
        <mxCell id="nAx7xvZWWUwr8eBIahOH-82" value="&lt;font style=&quot;font-size: 16px;&quot;&gt;修改密码&lt;/font&gt;" style="ellipse;whiteSpace=wrap;html=1;" parent="1" vertex="1">
          <mxGeometry x="510" y="-480" width="120" height="80" as="geometry" />
        </mxCell>
        <mxCell id="nAx7xvZWWUwr8eBIahOH-84" value="&lt;span style=&quot;font-size: 16px;&quot;&gt;社会组织注册&lt;/span&gt;" style="ellipse;whiteSpace=wrap;html=1;" parent="1" vertex="1">
          <mxGeometry x="680" y="-640" width="120" height="80" as="geometry" />
        </mxCell>
        <mxCell id="nAx7xvZWWUwr8eBIahOH-86" value="&lt;font style=&quot;font-size: 16px;&quot;&gt;社会组织管理&lt;/font&gt;" style="ellipse;whiteSpace=wrap;html=1;" parent="1" vertex="1">
          <mxGeometry x="-140" y="-350" width="120" height="80" as="geometry" />
        </mxCell>
        <mxCell id="nAx7xvZWWUwr8eBIahOH-90" style="rounded=0;orthogonalLoop=1;jettySize=auto;html=1;entryX=1;entryY=0.5;entryDx=0;entryDy=0;endArrow=open;endFill=0;dashed=1;exitX=0;exitY=0.5;exitDx=0;exitDy=0;" parent="1" source="nAx7xvZWWUwr8eBIahOH-88" target="nAx7xvZWWUwr8eBIahOH-86" edge="1">
          <mxGeometry relative="1" as="geometry" />
        </mxCell>
        <mxCell id="nAx7xvZWWUwr8eBIahOH-88" value="&lt;div&gt;&lt;font style=&quot;font-size: 16px;&quot;&gt;&lt;br&gt;&lt;/font&gt;&lt;/div&gt;&lt;font style=&quot;font-size: 16px;&quot;&gt;查看所有社会组织&lt;/font&gt;" style="ellipse;whiteSpace=wrap;html=1;" parent="1" vertex="1">
          <mxGeometry x="60" y="-346" width="120" height="80" as="geometry" />
        </mxCell>
        <mxCell id="nAx7xvZWWUwr8eBIahOH-91" value="&lt;div&gt;&lt;font style=&quot;font-size: 16px;&quot;&gt;&lt;br&gt;&lt;/font&gt;&lt;/div&gt;&lt;font style=&quot;font-size: 16px;&quot;&gt;禁用社会组织账号&lt;/font&gt;" style="ellipse;whiteSpace=wrap;html=1;" parent="1" vertex="1">
          <mxGeometry x="742" y="-1539" width="120" height="80" as="geometry" />
        </mxCell>
        <mxCell id="paF9IsCoqRaDz2D7nvKr-4" style="rounded=0;orthogonalLoop=1;jettySize=auto;html=1;entryX=0;entryY=0.5;entryDx=0;entryDy=0;dashed=1;exitX=1;exitY=0.5;exitDx=0;exitDy=0;" edge="1" parent="1" source="paF9IsCoqRaDz2D7nvKr-2" target="6dfBTm71OyUCT0kCx_6O-10">
          <mxGeometry relative="1" as="geometry" />
        </mxCell>
        <mxCell id="paF9IsCoqRaDz2D7nvKr-2" value="&lt;font style=&quot;font-size: 16px;&quot;&gt;AI美化项目字段&lt;/font&gt;" style="ellipse;whiteSpace=wrap;html=1;" vertex="1" parent="1">
          <mxGeometry x="360" y="-410" width="120" height="80" as="geometry" />
        </mxCell>
        <mxCell id="paF9IsCoqRaDz2D7nvKr-6" style="rounded=0;orthogonalLoop=1;jettySize=auto;html=1;entryX=0;entryY=0.5;entryDx=0;entryDy=0;dashed=1;" edge="1" parent="1" source="paF9IsCoqRaDz2D7nvKr-5" target="6dfBTm71OyUCT0kCx_6O-10">
          <mxGeometry relative="1" as="geometry" />
        </mxCell>
        <mxCell id="paF9IsCoqRaDz2D7nvKr-5" value="&lt;span style=&quot;font-size: 16px;&quot;&gt;专家优化项目&lt;/span&gt;&lt;div&gt;&lt;span style=&quot;font-size: 16px;&quot;&gt;VIP&lt;/span&gt;&lt;/div&gt;" style="ellipse;whiteSpace=wrap;html=1;" vertex="1" parent="1">
          <mxGeometry x="360" y="-310" width="120" height="80" as="geometry" />
        </mxCell>
        <mxCell id="paF9IsCoqRaDz2D7nvKr-9" style="rounded=0;orthogonalLoop=1;jettySize=auto;html=1;entryX=0;entryY=0.5;entryDx=0;entryDy=0;exitX=1;exitY=0.3333333333333333;exitDx=0;exitDy=0;exitPerimeter=0;" edge="1" parent="1" source="paF9IsCoqRaDz2D7nvKr-7" target="paF9IsCoqRaDz2D7nvKr-8">
          <mxGeometry relative="1" as="geometry" />
        </mxCell>
        <mxCell id="paF9IsCoqRaDz2D7nvKr-10" style="rounded=0;orthogonalLoop=1;jettySize=auto;html=1;entryX=0;entryY=0.5;entryDx=0;entryDy=0;" edge="1" parent="1" source="paF9IsCoqRaDz2D7nvKr-7" target="6dfBTm71OyUCT0kCx_6O-15">
          <mxGeometry relative="1" as="geometry" />
        </mxCell>
        <mxCell id="paF9IsCoqRaDz2D7nvKr-11" style="rounded=0;orthogonalLoop=1;jettySize=auto;html=1;entryX=0;entryY=0.5;entryDx=0;entryDy=0;exitX=1;exitY=0.3333333333333333;exitDx=0;exitDy=0;exitPerimeter=0;" edge="1" parent="1" source="paF9IsCoqRaDz2D7nvKr-7" target="6dfBTm71OyUCT0kCx_6O-13">
          <mxGeometry relative="1" as="geometry" />
        </mxCell>
        <mxCell id="paF9IsCoqRaDz2D7nvKr-7" value="&lt;span style=&quot;font-size: 16px;&quot;&gt;系统管理员&lt;/span&gt;&lt;div&gt;&lt;span style=&quot;font-size: 16px;&quot;&gt;（内部）0&lt;/span&gt;&lt;/div&gt;" style="shape=umlActor;verticalLabelPosition=bottom;verticalAlign=top;html=1;outlineConnect=0;" vertex="1" parent="1">
          <mxGeometry x="-280" y="-1120" width="30" height="60" as="geometry" />
        </mxCell>
        <mxCell id="paF9IsCoqRaDz2D7nvKr-8" value="&lt;div&gt;&lt;span style=&quot;font-size: 16px; background-color: initial;&quot;&gt;系统管理员登录&lt;/span&gt;&lt;br&gt;&lt;/div&gt;" style="ellipse;whiteSpace=wrap;html=1;" vertex="1" parent="1">
          <mxGeometry x="-100" y="-1420" width="120" height="80" as="geometry" />
        </mxCell>
      </root>
    </mxGraphModel>
  </diagram>
</mxfile>
